<?xml version="1.0" encoding="UTF-8"?>
<svg width="256" height="256" viewBox="0 0 256 256" xmlns="http://www.w3.org/2000/svg">
  <defs>
    <linearGradient id="bgGrad" x1="0%" y1="0%" x2="100%" y2="100%">
      <stop offset="0%" style="stop-color:#b91c1c"/>
      <stop offset="100%" style="stop-color:#ef4444"/>
    </linearGradient>
    <linearGradient id="paperGrad" x1="0%" y1="0%" x2="100%" y2="100%">
      <stop offset="0%" style="stop-color:#ffffff"/>
      <stop offset="100%" style="stop-color:#e5e5e5"/>
    </linearGradient>
    <linearGradient id="shieldGrad" x1="0%" y1="0%" x2="100%" y2="100%">
      <stop offset="0%" style="stop-color:#fbbf24"/>
      <stop offset="100%" style="stop-color:#f59e0b"/>
    </linearGradient>
  </defs>

  <!-- Background -->
  <rect x="16" y="16" width="224" height="224" rx="32" ry="32" fill="url(#bgGrad)"/>

  <!-- Document -->
  <path d="M 74 56 L 74 204 C 74 212 80 218 88 218 L 166 218 C 174 218 180 212 180 204 L 180 92 L 148 60 L 148 56 Z"
        fill="url(#paperGrad)" stroke="#b91c1c" stroke-width="4"/>
  <path d="M 148 56 L 148 92 L 180 92" fill="none" stroke="#b91c1c" stroke-width="4"/>

  <!-- Up arrow -->
  <path d="M 128 112 L 128 172" stroke="#b91c1c" stroke-width="10" stroke-linecap="round"/>
  <path d="M 110 130 L 128 112 L 146 130" fill="none" stroke="#b91c1c" stroke-width="10" stroke-linecap="round" stroke-linejoin="round"/>

  <!-- Shield badge -->
  <path d="M 196 108
           C 178 108 166 96 166 78
           L 166 70
           L 196 58
           L 226 70
           L 226 78
           C 226 96 214 108 196 108 Z"
        fill="url(#shieldGrad)" stroke="#ffffff" stroke-width="2"/>
  <path d="M 196 68 L 196 92" stroke="#ffffff" stroke-width="4" stroke-linecap="round"/>
  <path d="M 188 80 L 196 72 L 204 80" fill="none" stroke="#ffffff" stroke-width="4" stroke-linecap="round" stroke-linejoin="round"/>

  <!-- "P" badge -->
  <circle cx="200" cy="56" r="28" fill="#fbbf24"/>
  <text x="188" y="67" font-family="Arial Black, Arial, sans-serif" font-size="32" font-weight="900" fill="#b91c1c">P</text>
</svg>

