<?xml version="1.0" encoding="UTF-8"?>
<svg width="256" height="256" viewBox="0 0 256 256" xmlns="http://www.w3.org/2000/svg">
  <defs>
    <linearGradient id="bgGrad" x1="0%" y1="0%" x2="100%" y2="100%">
      <stop offset="0%" style="stop-color:#7c3aed"/>
      <stop offset="100%" style="stop-color:#a855f7"/>
    </linearGradient>
    <linearGradient id="iconGrad" x1="0%" y1="0%" x2="100%" y2="100%">
      <stop offset="0%" style="stop-color:#ffffff"/>
      <stop offset="100%" style="stop-color:#e5e5e5"/>
    </linearGradient>
  </defs>
  
  <!-- Background rounded square -->
  <rect x="16" y="16" width="224" height="224" rx="32" ry="32" fill="url(#bgGrad)"/>
  
  <!-- SVG icon (left side) -->
  <g transform="translate(60, 80)">
    <rect x="0" y="0" width="60" height="60" rx="8" ry="8" fill="url(#iconGrad)" stroke="#7c3aed" stroke-width="3"/>
    <path d="M 20 20 L 40 20 L 40 30 L 20 30 Z" fill="#7c3aed"/>
    <path d="M 20 35 L 45 35 L 45 40 L 20 40 Z" fill="#7c3aed"/>
    <path d="M 20 45 L 35 45 L 35 50 L 20 50 Z" fill="#7c3aed"/>
    <text x="30" y="75" font-family="Arial, sans-serif" font-size="12" font-weight="bold" fill="#ffffff" text-anchor="middle">SVG</text>
  </g>
  
  <!-- Arrow -->
  <path d="M 130 110 L 160 110 L 155 100 M 160 110 L 155 120" stroke="#ffffff" stroke-width="4" stroke-linecap="round" fill="none"/>
  
  <!-- ICO icon (right side) -->
  <g transform="translate(136, 80)">
    <rect x="0" y="0" width="60" height="60" rx="8" ry="8" fill="url(#iconGrad)" stroke="#7c3aed" stroke-width="3"/>
    <circle cx="30" cy="30" r="15" fill="#7c3aed"/>
    <circle cx="30" cy="30" r="8" fill="#ffffff"/>
    <text x="30" y="75" font-family="Arial, sans-serif" font-size="12" font-weight="bold" fill="#ffffff" text-anchor="middle">ICO</text>
  </g>
  
  <!-- "P" badge -->
  <circle cx="200" cy="56" r="28" fill="#fbbf24"/>
  <text x="188" y="67" font-family="Arial Black, Arial, sans-serif" font-size="32" font-weight="900" fill="#7c3aed">P</text>
</svg>

