<?xml version="1.0" encoding="UTF-8"?>
<svg width="256" height="256" viewBox="0 0 256 256" xmlns="http://www.w3.org/2000/svg">
  <defs>
    <linearGradient id="bg" x1="0%" y1="0%" x2="100%" y2="100%">
      <stop offset="0%" style="stop-color:#0e7490"/>
      <stop offset="100%" style="stop-color:#06b6d4"/>
    </linearGradient>
    <linearGradient id="panel" x1="0%" y1="0%" x2="100%" y2="100%">
      <stop offset="0%" style="stop-color:#ffffff"/>
      <stop offset="100%" style="stop-color:#e2e8f0"/>
    </linearGradient>
  </defs>

  <rect x="16" y="16" width="224" height="224" rx="32" ry="32" fill="url(#bg)"/>

  <!-- Left folder -->
  <path d="M48 88 h52 l14 14 h54 v78 H48 Z" fill="url(#panel)"/>
  <path d="M48 88 h40 l12 12 H48 Z" fill="#cbd5e1"/>

  <!-- Right folder -->
  <path d="M132 88 h52 l14 14 h54 v78 H132 Z" fill="url(#panel)"/>
  <path d="M132 88 h40 l12 12 H132 Z" fill="#cbd5e1"/>

  <!-- Sync arrows -->
  <path d="M108 118 h40" stroke="#f59e0b" stroke-width="10" stroke-linecap="round"/>
  <path d="M132 106 l16 12 l-16 12" fill="none" stroke="#f59e0b" stroke-width="10" stroke-linecap="round" stroke-linejoin="round"/>
  <path d="M148 158 h-40" stroke="#fbbf24" stroke-width="10" stroke-linecap="round"/>
  <path d="M124 146 l-16 12 l16 12" fill="none" stroke="#fbbf24" stroke-width="10" stroke-linecap="round" stroke-linejoin="round"/>

  <!-- Badge -->
  <circle cx="208" cy="52" r="26" fill="#f59e0b"/>
  <text x="196" y="62" font-family="Arial Black, Arial, sans-serif" font-size="28" font-weight="900" fill="#0e7490">P</text>
</svg>
