<?xml version="1.0" encoding="UTF-8"?>
<svg width="256" height="256" viewBox="0 0 256 256" xmlns="http://www.w3.org/2000/svg">
  <defs>
    <linearGradient id="bgGrad" x1="0%" y1="0%" x2="100%" y2="100%">
      <stop offset="0%" style="stop-color:#059669"/>
      <stop offset="100%" style="stop-color:#10b981"/>
    </linearGradient>
    <linearGradient id="docGrad" x1="0%" y1="0%" x2="100%" y2="100%">
      <stop offset="0%" style="stop-color:#ffffff"/>
      <stop offset="100%" style="stop-color:#e5e5e5"/>
    </linearGradient>
  </defs>
  
  <!-- Background rounded square -->
  <rect x="16" y="16" width="224" height="224" rx="32" ry="32" fill="url(#bgGrad)"/>
  
  <!-- Document icon -->
  <path d="M 80 60 L 80 200 L 176 200 L 176 100 L 126 100 L 126 60 Z" fill="url(#docGrad)" stroke="#059669" stroke-width="4"/>
  <path d="M 126 60 L 126 100 L 176 100" fill="none" stroke="#059669" stroke-width="4" stroke-linejoin="miter"/>
  
  <!-- Document lines -->
  <line x1="95" y1="130" x2="161" y2="130" stroke="#059669" stroke-width="3" stroke-linecap="round"/>
  <line x1="95" y1="150" x2="161" y2="150" stroke="#059669" stroke-width="3" stroke-linecap="round"/>
  <line x1="95" y1="170" x2="145" y2="170" stroke="#059669" stroke-width="3" stroke-linecap="round"/>
  
  <!-- Touch/clock indicator (small clock in corner) -->
  <circle cx="190" cy="80" r="20" fill="#fbbf24" stroke="#059669" stroke-width="2"/>
  <circle cx="190" cy="80" r="12" fill="none" stroke="#059669" stroke-width="2"/>
  <line x1="190" y1="80" x2="190" y2="72" stroke="#059669" stroke-width="2" stroke-linecap="round"/>
  <line x1="190" y1="80" x2="196" y2="80" stroke="#059669" stroke-width="2" stroke-linecap="round"/>
  
  <!-- "P" badge -->
  <circle cx="200" cy="56" r="28" fill="#fbbf24"/>
  <text x="188" y="67" font-family="Arial Black, Arial, sans-serif" font-size="32" font-weight="900" fill="#059669">P</text>
</svg>

