<?xml version="1.0" encoding="UTF-8"?>
<svg width="256" height="256" viewBox="0 0 256 256" xmlns="http://www.w3.org/2000/svg">
  <defs>
    <linearGradient id="bgGrad2" x1="0%" y1="0%" x2="100%" y2="100%">
      <stop offset="0%" style="stop-color:#26a269"/>
      <stop offset="100%" style="stop-color:#33d17a"/>
    </linearGradient>
    <linearGradient id="fileGrad" x1="0%" y1="0%" x2="100%" y2="100%">
      <stop offset="0%" style="stop-color:#ffffff"/>
      <stop offset="100%" style="stop-color:#deddda"/>
    </linearGradient>
    <linearGradient id="arrowGrad" x1="0%" y1="0%" x2="100%" y2="100%">
      <stop offset="0%" style="stop-color:#f5c211"/>
      <stop offset="100%" style="stop-color:#e5a50a"/>
    </linearGradient>
  </defs>
  
  <!-- Background rounded square -->
  <rect x="16" y="16" width="224" height="224" rx="32" ry="32" fill="url(#bgGrad2)"/>
  
  <!-- Source file (back) -->
  <g transform="translate(40, 50)">
    <path d="M 0 15 L 0 130 C 0 138 6 144 14 144 L 86 144 C 94 144 100 138 100 130 L 100 35 L 75 10 L 75 0 L 14 0 C 6 0 0 6 0 14 Z" fill="url(#fileGrad)" opacity="0.6"/>
    <path d="M 75 0 L 75 25 C 75 31 80 35 86 35 L 100 35" fill="#deddda" opacity="0.6"/>
    <!-- Lines on file -->
    <line x1="15" y1="55" x2="70" y2="55" stroke="#9a9996" stroke-width="6" stroke-linecap="round" opacity="0.6"/>
    <line x1="15" y1="75" x2="55" y2="75" stroke="#9a9996" stroke-width="6" stroke-linecap="round" opacity="0.6"/>
    <line x1="15" y1="95" x2="65" y2="95" stroke="#9a9996" stroke-width="6" stroke-linecap="round" opacity="0.6"/>
  </g>
  
  <!-- Destination file (front) -->
  <g transform="translate(95, 65)">
    <path d="M 0 15 L 0 130 C 0 138 6 144 14 144 L 86 144 C 94 144 100 138 100 130 L 100 35 L 75 10 L 75 0 L 14 0 C 6 0 0 6 0 14 Z" fill="url(#fileGrad)"/>
    <path d="M 75 0 L 75 25 C 75 31 80 35 86 35 L 100 35" fill="#deddda"/>
    <!-- Lines on file -->
    <line x1="15" y1="55" x2="70" y2="55" stroke="#9a9996" stroke-width="6" stroke-linecap="round"/>
    <line x1="15" y1="75" x2="55" y2="75" stroke="#9a9996" stroke-width="6" stroke-linecap="round"/>
    <line x1="15" y1="95" x2="65" y2="95" stroke="#9a9996" stroke-width="6" stroke-linecap="round"/>
  </g>
  
  <!-- Copy arrow -->
  <g transform="translate(55, 95)">
    <path d="M 0 25 L 35 25" stroke="url(#arrowGrad)" stroke-width="10" stroke-linecap="round"/>
    <path d="M 22 12 L 40 25 L 22 38" stroke="url(#arrowGrad)" stroke-width="10" stroke-linecap="round" stroke-linejoin="round" fill="none"/>
  </g>
  
  <!-- Clock indicator for "recent" -->
  <circle cx="210" cy="46" r="24" fill="url(#arrowGrad)"/>
  <circle cx="210" cy="46" r="16" fill="none" stroke="#1a5fb4" stroke-width="3"/>
  <line x1="210" y1="46" x2="210" y2="36" stroke="#1a5fb4" stroke-width="3" stroke-linecap="round"/>
  <line x1="210" y1="46" x2="218" y2="50" stroke="#1a5fb4" stroke-width="3" stroke-linecap="round"/>
</svg>

